<svg width="351" height="141" viewBox="0 0 351 141" fill="none" xmlns="http://www.w3.org/2000/svg">
<path d="M396.07 139.8C382.019 116.81 333.783 109.927 298.541 86.1947C263.556 62.6905 242.108 22.3364 209.693 7.28567C177.279 -7.53655 133.869 2.94468 98.3695 26.4203C62.899 49.9245 35.0823 86.4232 17.7183 128.805C0.611384 171.187 -6.04291 219.452 9.29338 259.006C24.3441 298.589 61.3853 329.462 100.169 342.485C138.981 355.765 179.563 350.91 213.777 341.971C247.991 332.775 275.551 319.495 300.312 301.645C325.072 284.024 347.034 262.319 368.482 231.961C389.673 201.574 410.122 162.762 396.07 139.8Z" fill="#F1F1F1"/>
</svg>
