<svg width="35" height="29" viewBox="0 0 35 29" fill="none" xmlns="http://www.w3.org/2000/svg">
<path d="M23.7596 9.34131C17.9471 9.34131 13.3846 13.6538 13.3846 18.9663C13.3846 19.8413 13.5721 20.7163 13.8221 21.5288C13.3846 21.5288 13.0721 21.5913 12.6346 21.5913C11.1346 21.5913 9.94708 21.2788 8.38458 20.9663L4.13458 23.0913L5.32208 19.4038C2.32208 17.2788 0.509583 14.5288 0.509583 11.2163C0.509583 5.40381 5.94708 0.841309 12.6346 0.841309C18.6346 0.841309 23.8846 4.52881 24.9471 9.40381C24.5096 9.34131 24.1346 9.34131 23.7596 9.34131ZM17.1971 6.02881C16.3221 6.02881 15.3846 6.65381 15.3846 7.59131C15.3846 8.46631 16.2596 9.09131 17.1971 9.09131C18.1346 9.09131 18.6971 8.46631 18.6971 7.59131C18.6971 6.65381 18.1346 6.02881 17.1971 6.02881ZM8.69708 9.09131C9.63458 9.09131 10.1971 8.46631 10.1971 7.59131C10.1971 6.65381 9.63458 6.02881 8.69708 6.02881C7.75958 6.02881 6.88458 6.65381 6.88458 7.59131C6.88458 8.46631 7.75958 9.09131 8.69708 9.09131ZM34.8846 18.8413C34.8846 21.5913 33.0721 24.0288 30.5721 25.8413L31.5096 28.9038L28.1971 27.0288C26.9471 27.3413 25.6971 27.6538 24.5096 27.6538C18.7596 27.6538 14.1971 23.7163 14.1971 18.8413C14.1971 13.9663 18.6971 10.0288 24.5096 10.0288C30.0096 10.0288 34.8846 13.9663 34.8846 18.8413ZM21.1346 17.2788C22.0721 17.2788 22.6971 16.7163 22.6971 16.0913C22.6971 15.4663 22.0721 14.8413 21.1346 14.8413C20.5721 14.8413 19.9471 15.4663 19.9471 16.0913C19.9471 16.7163 20.5721 17.2788 21.1346 17.2788ZM27.8846 17.2788C28.7596 17.2788 29.3846 16.7163 29.3846 16.0913C29.3846 15.4663 28.7596 14.8413 27.8846 14.8413C27.2596 14.8413 26.6346 15.4663 26.6346 16.0913C26.6346 16.7163 27.2596 17.2788 27.8846 17.2788Z" fill="#404040"/>
</svg>
