<svg width="29" height="33" viewBox="0 0 29 33" fill="none" xmlns="http://www.w3.org/2000/svg">
    <!-- Рамка устройства -->
    <path d="M25.7 0.8C27.3 0.8 28.7 2.2 28.7 3.8V29.8C28.7 31.5 27.3 32.8 25.7 32.8H3.7C2 32.8 0.7 31.5 0.7 29.8V3.8C0.7 2.2 2 0.8 3.7 0.8H25.7ZM14.7 30.8C15.8 30.8 16.7 29.9 16.7 28.8C16.7 27.8 15.8 26.8 14.7 26.8C13.6 26.8 12.7 27.8 12.7 28.8C12.7 29.9 13.6 30.8 14.7 30.8ZM25.7 24.1V4.6C25.7 4.2 25.3 3.8 24.9 3.8H4.4C4 3.8 3.7 4.2 3.7 4.6V24.1C3.7 24.5 4 24.8 4.4 24.8H24.9C25.3 24.8 25.7 24.5 25.7 24.1Z" fill="#404040"/>

    <!-- Два пользователя -->
    <circle cx="10" cy="13" r="2" fill="#404040"/>
    <circle cx="19" cy="13" r="2" fill="#404040"/>

    <!-- Тела пользователей -->
    <path d="M7.5 17C7.5 15.9 8.8 15 10 15C11.2 15 12.5 15.9 12.5 17V18H7.5V17Z" fill="#404040"/>
    <path d="M16.5 17C16.5 15.9 17.8 15 19 15C20.2 15 21.5 15.9 21.5 17V18H16.5V17Z" fill="#404040"/>
</svg>
